<?xml version="1.0" standalone="no"?>
<!DOCTYPE svg PUBLIC "-//W3C//DTD SVG 20010904//EN"
 "http://www.w3.org/TR/2001/REC-SVG-20010904/DTD/svg10.dtd">
<svg version="1.0" xmlns="http://www.w3.org/2000/svg"
 width="36.000000pt" height="24.000000pt" viewBox="0 0 122.000000 81.000000"
 preserveAspectRatio="xMidYMid meet">
<metadata>
Created by potrace 1.15, written by Peter Selinger 2001-2017
</metadata>
<g transform="translate(0.000000,81.000000) scale(0.100000,-0.100000)"
fill="#000000" stroke="none">
<path d="M861 540 c-59 -47 -109 -100 -180 -190 -28 -36 -55 -70 -61 -77 -5
-7 -10 -16 -10 -20 -1 -10 -50 -70 -50 -61 0 19 59 166 104 258 28 58 52 108
54 113 2 4 -4 7 -14 7 -22 0 -121 -101 -205 -208 -133 -169 -204 -221 -264
-194 -31 14 -33 40 -2 44 17 2 22 10 22 33 0 26 -4 30 -29 33 -35 4 -46 -10
-46 -60 0 -27 6 -41 22 -52 32 -23 113 -21 153 4 18 11 80 80 137 152 136 171
167 199 85 75 -69 -103 -89 -164 -71 -216 13 -35 49 -40 74 -9 11 13 23 28 28
33 4 6 11 17 14 26 10 25 153 212 184 239 33 29 30 24 -49 -84 -122 -168 -95
-296 45 -207 47 30 64 48 55 58 -3 3 -27 -11 -53 -31 -54 -41 -81 -48 -64 -16
6 11 8 20 5 20 -8 0 112 237 152 299 46 71 31 84 -36 31z"/>
</g>
</svg>
