<svg
 width="20pt" height="20pt" viewBox="0 0 97 96"
 preserveAspectRatio="xMidYMid meet">
<g transform="translate(0.000000,96.000000) scale(0.100000,-0.100000)"
fill="#000000" stroke="none">
<path d="M226 782 c-3 -5 -5 -109 -5 -233 -1 -158 -5 -245 -15 -294 -17 -80
-9 -111 37 -133 24 -12 33 -11 65 5 45 22 50 45 27 133 -9 34 -14 64 -11 67 2
3 14 -1 27 -7 13 -7 44 -10 76 -8 43 4 60 11 87 37 l32 31 13 -24 c17 -31 51
-46 104 -46 66 0 117 18 117 40 0 15 -7 20 -28 20 -50 0 -52 9 -52 222 l0 198
-79 0 -79 0 -2 -175 c0 -96 -3 -181 -6 -189 -9 -23 -70 -47 -99 -40 -50 12
-55 33 -55 226 l0 178 -74 0 c-41 0 -77 -4 -80 -8z"/>
</g>
</svg>
